<?xml version="1.0" encoding="UTF-8"?>
<svg id="_Слой_1" data-name="Слой_1" xmlns="http://www.w3.org/2000/svg" version="1.1" viewBox="0 0 595.28 841.89">
  <!-- Generator: Adobe Illustrator 29.3.1, SVG Export Plug-In . SVG Version: 2.1.0 Build 151)  -->
  <defs>
    <style>
      .st0 {
        fill: #140905;
        stroke: #1d1d1b;
        stroke-miterlimit: 10;
      }

      .st1 {
        fill: #fcfcfb;
      }
    </style>
  </defs>
  <circle class="st0" cx="290" cy="415" r="162"/>
  <path class="st1" d="M342.52,497.68h-25.88c-.23,0-.59.98-1.16.77v-74.56c0-1.33-1.54-6.31-2.18-7.87-6.23-15.26-37.2-13.28-44.32.79-.74,1.48-2.95,7.38-2.95,8.64v72.23h-27.04v-72.23c0-1.75-2.61-7.72-3.7-9.42-6.92-10.69-27.31-13.47-37.78-7.34-3.43,2-7.18,7.41-7.18,11.36v77.64h-27.03v-79.18c0-2.54,2.61-10.57,3.72-13.28,13.51-32.52,63.67-34.55,84.74-8.75,22.4-26.37,72.59-23.42,86.8,9.78,1.31,3.05,3.97,11.6,3.97,14.57v76.87-.02h-.01Z"/>
  <path class="st1" d="M382.69,343.17v37.09h33.99v25.49h-33.99v49.83c0,1.2,1.93,6.79,2.67,8.15,2.29,4.29,9.21,8.46,13.95,8.46h17.39v25.11c0,.25-1,1.25-1.57.84-12.64-1.38-24.91,1.49-36.81-4.18-16.05-7.64-21.68-23.11-22.68-39.89-2.08-34.81,1.66-71.66,0-106.68l.8-4.21h26.27l-.02.02v-.03Z"/>
</svg>