<?xml version="1.0" encoding="UTF-8"?>
<svg id="_Слой_2" data-name="Слой 2" xmlns="http://www.w3.org/2000/svg" viewBox="0 0 590.21 158.13">
  <defs>
    <style>
      .cls-1 {
        fill: #fbfbfa;
      }
    </style>
  </defs>
  <g id="_Слой_1-2" data-name="Слой 1">
    <g>
      <path class="cls-1" d="M180.5,156.63h-26.06c-.23,0-.59.99-1.17.78v-75.09c0-1.34-1.55-6.36-2.2-7.92-6.27-15.37-37.47-13.37-44.63.79-.74,1.49-2.97,7.43-2.97,8.7v72.74h-27.24v-72.74c0-1.77-2.62-7.77-3.73-9.49-6.97-10.76-27.5-13.57-38.05-7.39-3.45,2.01-7.23,7.46-7.23,11.44v78.19H0v-79.74c0-2.56,2.62-10.65,3.75-13.37,13.6-32.75,64.13-34.8,85.34-8.81,22.56-26.56,73.11-23.59,87.42,9.85,1.32,3.07,3.99,11.69,3.99,14.67v77.42-.02Z"/>
      <g>
        <path class="cls-1" d="M288.32.02v44.35c2.49-.73,4.52-2.46,7.02-3.48,22.88-9.43,52.33-4.9,68.01,15.22,3.68,4.74,8.24,15.42,8.24,21.33v78.97c-6.34-.2-12.74.25-19.1.03-2.61-.08-4.61-1.39-7.36-.03v-72.74c0-3.38-3.33-11.06-5.84-13.6-9.46-9.64-37.78-9.74-46.61.83-1.4,1.67-4.34,7.76-4.34,9.66v75.09h-27.24V1.96c0-.26,1.02-1.19.78-1.95h26.46Z"/>
        <path class="cls-1" d="M215.96.02v37.35h34.23v25.67h-34.23v50.18c0,1.2,1.95,6.83,2.69,8.2,2.31,4.32,9.28,8.52,14.05,8.52h17.51v25.29c0,.25-1.01,1.25-1.58.84-12.73-1.39-25.09,1.5-37.07-4.21-16.16-7.69-21.84-23.27-22.85-40.18-2.1-35.06,1.67-72.17,0-107.44l.81-4.24h26.46l-.02.02Z"/>
      </g>
    </g>
    <g>
      <path class="cls-1" d="M438.34,36.03c44.52-4.18,76.18,30.49,68.37,74.59-10.4,58.71-97.16,64.11-119.16,9.95-15.65-38.49,9.51-80.68,50.79-84.56v.02ZM438.3,63.24c-26.11,3.53-36.55,36.08-20.44,55.83,17.91,21.95,57.03,13.49,62.44-14.61,5.12-26.58-16.29-44.7-42.01-41.22Z"/>
      <path class="cls-1" d="M590.21,37.37v25.67h-22.17c-3.45,0-11.87,2.54-14.77,4.67-3.33,2.44-7.4,8.72-7.4,12.84v75.86h-27.24v-79.74c0-21.01,25.12-39.29,44.73-39.29h26.84v-.02Z"/>
    </g>
  </g>
</svg>