<svg xmlns="http://www.w3.org/2000/svg" version="1.1" viewBox="0 0 578.18 244.48">
  <path class="st0"
    d="M528.8,158.44c.84,4.92,1.58,10.09,1.92,15.07,1.51,22.03,1.38,46.38-18.76,60.08-19.6,13.33-46.53,9.67-61.14-9.07-21.49,19.22-52.94,22.07-77.75,7.28-4.49-2.68-8.33-6.19-12.53-9.24-13.55,21.77-47.72,25.8-65.42,7.04-15.77,13.19-37.88,16.22-55.76,5.17-17.89,10.04-40.6,9.4-55.87-5.09-2.99,1.33-4.97,3.85-7.73,5.58-15.44,9.65-36.07,8.5-49.32-4.32-15.92,13.9-40,14.59-55.78.03-15.22,12.51-35.84,14.64-52.74,4.05C-5.91,220.09-.48,191.57-.08,167.77c.4-23.11-.99-49.17.62-71.82,2.04-28.68,26.74-50.36,55.63-42.82,2.37.62,10.05,4.63,10.71,4.62,1.6,0,9.17-3.67,12.36-4.27,12.6-2.38,24.93.07,35.09,7.96,11.23-7.67,23.38-11.22,36.99-8.58,4.67.9,8.24,3.1,12.69,4.3,7.44-25.48,36.68-37.21,59.62-23.08,7-25.04,32.18-40.34,57.57-31.59,23.46,8.08,32.03,33.59,28.98,56.6,16.92-.85,33.2,7.13,42.65,21.15l12.49-13.15c26.77-22.68,65.3-20.39,89.44,4.8,10.16-15.53,30.68-24.4,48.9-19.4,1.77.49,5.89,2.7,6.87,2.7,1.25,0,8.16-3.06,11.1-3.6,59.23-10.76,78.98,78.17,32.73,101.97-3.44,1.77-11.98,4.89-15.63,4.89h-9.94ZM301.22,69.97c.06-16.6,3.42-34.72-8.33-48.42-15.78-18.4-46.05-14.22-57.4,6.74-4.05,7.46-4.82,15.36-4.8,23.73-16.7-21.33-47.88-19.69-58.18,6.89-.83,2.14-3.3,13.62-4.32,13.62-12.32-13.23-33.04-14.14-47.7-4.1-1.37.94-6.01,5.4-6.78,5.4-11.38-14.98-33.34-14.39-48.1-4.67-14.19-14-40.77-7.52-50.58,8.57-8.69,14.24-5.11,40.55-5.48,57.35-.21,9.74-.41,19.68-.64,29.49-.46,19.45-6.56,47.37,11.3,61.09,11.87,9.12,31.77,9.12,43.17-.85,2.96-2.58,4.53-5.8,7.04-8.66,8.76,18.55,36.48,21.43,50.59,7.3l5.51-6.67c11.07,21.65,45.99,20.46,55.47-1.92.55-.44,3.83,4.78,4.47,5.46,14.51,15.64,36.93,15.23,53.46,2.94,15.25,15.21,45.42,10.78,54.58-9.04,14.85,28.13,56.35,22.24,64.11-8.33,14.81,21.31,40.01,31.16,65.35,23.68,12.38-3.65,21.57-11.59,29.84-21.12,5.87,27.69,44.67,31.48,60.8,10.47,7.79-10.15,8.01-23.54,7.83-35.82l-3.23-37.47c24.5,10.56,47.13-4.62,51.11-29.99,5.79-36.9-23.57-69.26-59.88-49.6-19.75-14.25-46.75-.16-53.42,21.46l-1.27.41c-8.05-13.75-23.23-23.98-38.97-26.75-22.28-3.91-44.38,7.32-56.81,25.54l-8.08,13.39c-4.92-22.39-28.25-37.85-50.65-30.13h0Z" />
  <path class="st0"
    d="M60.61,91.96c4.41-6.4,9.47-12.5,17.03-15.35,17.32-6.53,30.06,3.01,34.93,19.5,2.76-3.13,3.99-7.42,6.71-10.89,12.16-15.53,35.84-15.12,45.91,2.42,11.53,20.08,8.03,68,8.8,92.4.46,14.66,4.83,38.38-15.7,41.78-30.63,5.07-25.86-34.36-25.41-53.11.3-12.33,2.47-25.52,1.06-37.81-1.12-9.82-12.4-11.14-15.59-.73-3.93,12.85,1.32,43.06,1.88,57.85.51,13.57-.33,32-17.5,34.39-37.62,5.24-23.39-55.36-22.56-76.42.19-4.73.48-12.78-.16-17.25-1.42-9.91-13.21-11.24-16.44-1.7-4.5,13.27.33,45.42.88,60.7.66,18.25-2.6,37.27-25.76,35.13-23.45-2.17-19.47-27.38-19.18-43.76.45-25.18-1.44-52.95.09-77.63.58-9.33,3.75-18.23,12.11-23.08,12.33-7.15,33.07-4.83,28.89,13.55h.01Z" />
  <path class="st0"
    d="M286.93,92.42c14.1-20.52,43.86-17.41,53.26,5.73,7.76,19.1,2.24,47.06,3.6,67.98,1.02,15.72,10.14,31.31-.7,45.76-8.1,10.8-23.7,12.74-33.61,3.18-15.85-15.28-1.52-60.69-3.71-81.41-1.48-14-15.61-16.51-19.91-2.47-2.14,6.99-1.44,21.79-1.09,29.55.61,13.51,5.9,37.31.04,49.04-6.33,12.69-26.35,16.06-36.11,5.56,6.8-11.49,7.88-24.96,1.28-36.79-1.9-3.4-4.67-6.04-6.79-9.26l-.3-44.22c.32-1.73,2.82-2.4,4.14-3.56,15.32-13.61,12.66-39.11-5.12-49.13,1.04-15.9-4.72-33.98,9.33-45.45,16.6-13.56,36.95-.54,38.62,18.97.67,7.75.03,18.41-.5,26.3-.45,6.74-1.54,13.53-2.42,20.21h0Z" />
  <path class="st0"
    d="M402.37,72.08c77.46-8.38,77.39,156.14.53,149.11-66.48-6.08-64.53-142.18-.53-149.11ZM403.61,114.99c-5.12,1.06-8.48,8.78-9.76,13.32-2.95,10.45-3.56,42.67,9.46,46.94,13.03,4.28,17.66-12.18,18.41-21.64.9-11.46.27-42.42-18.12-38.63h0Z" />
  <path class="st0"
    d="M506.16,88.44l5.44-10.24c31.33-28.14,60.55,17.84,42.13,47.32-5.99,9.58-22,16.1-30.32,5.78-4.41-5.48-3.15-16.18-6.85-18.87-6.14-4.46-9.87,9.17-10.18,13.49-1.62,22.41,10.91,63.73,1.44,82.32-8.52,16.73-36.43,15.94-42.61-2.51-3.7-11.03.24-16.17,2.75-26.02,4.66-18.26,5.59-38.02,2.32-56.55-2.46-13.94-8.94-22.28-1.87-36.64,5.39-10.94,17.09-18.01,29.47-15.84,2.51.44,8.19,4.74,8.21,7.17l.07,10.58h0Z" />
  <path class="st0"
    d="M221.05,117.2c-.96,8.42-.38,16.88-.45,25.36-.07,8.98-2.02,22.84,3.26,30.85,3.92,5.96,12.05,2.54,16.74,10.8,13.39,23.6-20.28,49.19-42.57,32.15-20.53-15.69-10.79-61.67-13.46-84.51l.63-12.77-2.01-.69c.29-8.28-1.49-16.57-3.79-24.48-.58-2.01-3.85-9.19-3.85-10.07,0-2.49,3.9-4.3,6.16-3.56-.53-10.89.2-22.07,10.52-28.15,7.48-4.4,16.14-3.65,22.95,1.66,8.48,6.64,6.36,15,5.78,24.66l.81.93,9.62-.06c.35,0,4.7,1.85,5.42,2.25,11.88,6.67,12.61,26.41.05,33.09-1.1.58-5.65,2.49-6.51,2.49l-9.3.06h0Z" />
</svg>